<svg width="12" height="12" viewBox="0 0 12 12" fill="none" xmlns="http://www.w3.org/2000/svg">
<path d="M12 5.66666C12.0023 6.54657 11.7967 7.41458 11.4 8.19999C10.9296 9.14115 10.2065 9.93277 9.31163 10.4862C8.41677 11.0396 7.3855 11.3329 6.33333 11.3333C5.45342 11.3356 4.58541 11.13 3.8 10.7333L0 12L1.26667 8.19999C0.869954 7.41458 0.664373 6.54657 0.666667 5.66666C0.667074 4.61449 0.960408 3.58322 1.51381 2.68836C2.06722 1.79349 2.85884 1.07037 3.8 0.599989C4.58541 0.203276 5.45342 -0.00230569 6.33333 -1.15255e-05H6.66667C8.05623 0.0766497 9.3687 0.663163 10.3528 1.64723C11.3368 2.63129 11.9233 3.94376 12 5.33332V5.66666Z" fill="#0275B1"/>
</svg>
